<?xml version="1.0" encoding="UTF-8"?>
<svg xmlns="http://www.w3.org/2000/svg" xmlns:xlink="http://www.w3.org/1999/xlink" width="575.7pt" height="618.8pt" viewBox="0 0 575.7 618.8" version="1.1">
<defs>
<clipPath id="clip1">
  <path d="M 0 0 L 575.699219 0 L 575.699219 618.800781 L 0 618.800781 Z M 0 0 "/>
</clipPath>
<clipPath id="clip2">
  <path d="M 0 63 L 575.699219 63 L 575.699219 561 L 0 561 Z M 0 63 "/>
</clipPath>
</defs>
<g id="surface1">
<path style=" stroke:none;fill-rule:evenodd;fill:rgb(10.594177%,7.835388%,35.693359%);fill-opacity:1;" d="M 471.214844 125.261719 C 518.585938 172.351563 547.917969 237.566406 547.917969 309.636719 C 547.917969 381.574219 518.695313 446.6875 471.476563 493.753906 L 499.496094 529.4375 C 444.574219 582.101563 370.039063 614.472656 287.9375 614.472656 C 205.835938 614.472656 131.300781 582.101563 76.378906 529.4375 L 104.402344 493.753906 C 57.183594 446.683594 27.960938 381.574219 27.960938 309.636719 C 27.960938 237.566406 57.292969 172.351563 104.660156 125.261719 L 76.378906 89.253906 C 131.300781 36.585938 205.835938 4.214844 287.9375 4.214844 C 370.039063 4.214844 444.574219 36.585938 499.496094 89.253906 Z M 471.214844 125.261719 "/>
<g clip-path="url(#clip1)" clip-rule="nonzero">
<path style="fill:none;stroke-width:85.04;stroke-linecap:butt;stroke-linejoin:miter;stroke:rgb(89.451599%,45.872498%,14.501953%);stroke-opacity:1;stroke-miterlimit:4;" d="M 4712.148438 4935.382813 C 5185.859375 4464.484375 5479.179688 3812.335938 5479.179688 3091.632813 C 5479.179688 2372.257813 5186.953125 1721.125 4714.765625 1250.460938 L 4994.960938 893.625 C 4445.742188 366.984375 3700.390625 43.273438 2879.375 43.273438 C 2058.359375 43.273438 1313.007813 366.984375 763.789063 893.625 L 1044.023438 1250.460938 C 571.835938 1721.164063 279.609375 2372.257813 279.609375 3091.632813 C 279.609375 3812.335938 572.929688 4464.484375 1046.601563 4935.382813 L 763.789063 5295.460938 C 1313.007813 5822.140625 2058.359375 6145.851563 2879.375 6145.851563 C 3700.390625 6145.851563 4445.742188 5822.140625 4994.960938 5295.460938 Z M 4712.148438 4935.382813 " transform="matrix(0.1,0,0,-0.1,0,618.8)"/>
</g>
<path style=" stroke:none;fill-rule:evenodd;fill:rgb(89.451599%,45.872498%,14.501953%);fill-opacity:1;" d="M 287.9375 101.53125 C 402.710938 101.53125 495.75 194.574219 495.75 309.34375 C 495.75 424.113281 402.710938 517.152344 287.9375 517.152344 C 173.167969 517.152344 80.128906 424.113281 80.128906 309.34375 C 80.128906 194.574219 173.167969 101.53125 287.9375 101.53125 Z M 287.9375 101.53125 "/>
<path style=" stroke:none;fill-rule:evenodd;fill:rgb(100%,100%,100%);fill-opacity:1;" d="M 425.746094 219.183594 C 414.824219 256.410156 317.070313 250.3125 317.070313 250.3125 C 267.8125 251.699219 254.910156 250.921875 254.910156 250.921875 C 254.910156 250.921875 232.957031 252.890625 231.851563 231.71875 C 231.074219 216.839844 250.886719 214.671875 250.886719 214.671875 L 301.484375 210.554688 C 301.484375 210.554688 314.859375 212.109375 312.613281 200.894531 C 310.902344 192.351563 297.296875 192.421875 297.296875 192.421875 L 255.777344 196.121094 C 255.777344 196.121094 234.253906 197.558594 224.75 207.941406 C 215.3125 218.238281 211.375 228.046875 219.996094 244.195313 C 202.726563 266.492188 170.195313 309.363281 170.195313 309.363281 C 170.195313 309.363281 158.863281 332.585938 138.128906 316.523438 C 117.40625 300.472656 129.320313 285.09375 134.085938 278.9375 C 138.851563 272.785156 212.097656 178.21875 212.097656 178.21875 C 212.097656 178.21875 225.097656 156.296875 265.800781 153.390625 C 295.253906 151.285156 372.238281 146.164063 412.617188 143.492188 C 419.710938 148.925781 427.964844 155.863281 436.28125 164.191406 C 434.570313 179.269531 431.417969 199.855469 425.746094 219.183594 Z M 425.746094 219.183594 "/>
<path style=" stroke:none;fill-rule:evenodd;fill:rgb(100%,100%,100%);fill-opacity:1;" d="M 150.128906 399.503906 C 161.054688 362.277344 258.808594 368.378906 258.808594 368.378906 C 308.066406 366.988281 320.964844 367.765625 320.964844 367.765625 C 320.964844 367.765625 342.917969 365.796875 344.023438 386.96875 C 344.804688 401.851563 324.988281 404.019531 324.988281 404.019531 L 274.390625 408.128906 C 274.390625 408.128906 261.019531 406.578125 263.265625 417.796875 C 264.976563 426.339844 278.582031 426.265625 278.582031 426.265625 L 320.097656 422.566406 C 320.097656 422.566406 341.625 421.128906 351.128906 410.742188 C 360.566406 400.449219 364.5 390.644531 355.882813 374.492188 C 373.152344 352.195313 405.683594 309.324219 405.683594 309.324219 C 405.683594 309.324219 417.015625 286.105469 437.746094 302.164063 C 458.46875 318.214844 446.558594 333.59375 441.792969 339.753906 C 437.027344 345.898438 363.78125 440.46875 363.78125 440.46875 C 363.78125 440.46875 350.777344 462.390625 310.078125 465.296875 C 280.429688 467.414063 202.625 472.589844 162.46875 475.253906 C 152.933594 468.164063 145.308594 461.238281 139.5 455.347656 C 141.1875 440.199219 144.351563 419.195313 150.128906 399.503906 Z M 150.128906 399.503906 "/>
<path style=" stroke:none;fill-rule:evenodd;fill:rgb(10.594177%,7.835388%,35.693359%);fill-opacity:1;" d="M 287.9375 257.351563 L 348.859375 357.5625 L 227.015625 357.5625 Z M 287.9375 257.351563 "/>
<path style=" stroke:none;fill-rule:evenodd;fill:rgb(100%,100%,100%);fill-opacity:1;" d="M 109.84375 98.140625 L 118.9375 90.96875 C 122.640625 88.050781 125.804688 86.390625 128.433594 85.984375 C 131.0625 85.585938 133.960938 85.921875 137.15625 87.011719 C 140.347656 88.097656 143.28125 90.335938 145.957031 93.730469 C 149.320313 97.992188 150.875 102.554688 150.617188 107.398438 C 150.363281 112.242188 148.027344 116.40625 143.605469 119.886719 L 133.355469 127.96875 Z M 121.019531 98.246094 L 135.792969 116.984375 L 138.664063 114.722656 C 141.203125 112.71875 142.335938 110.277344 142.070313 107.40625 C 141.800781 104.535156 140.65625 101.8125 138.636719 99.253906 C 137.214844 97.445313 135.542969 96.046875 133.621094 95.066406 C 131.710938 94.089844 129.988281 93.691406 128.457031 93.894531 C 126.925781 94.097656 125.417969 94.777344 123.957031 95.929688 Z M 170.996094 65.941406 L 155.417969 75.0625 L 159.359375 81.796875 L 171.59375 74.632813 L 175.191406 80.773438 L 162.957031 87.9375 L 167.15625 95.113281 L 182.734375 85.992188 L 186.53125 92.476563 L 163.140625 106.175781 L 143.949219 73.398438 L 167.339844 59.699219 Z M 206.058594 52.804688 L 189.46875 59.171875 L 192.507813 67.09375 L 205.640625 62.054688 L 208.191406 68.699219 L 195.058594 73.738281 L 200.386719 87.613281 L 191.773438 90.921875 L 178.164063 55.464844 L 203.363281 45.789063 Z M 240.867188 43.863281 L 223.277344 47.921875 L 225.035156 55.523438 L 238.847656 52.339844 L 240.449219 59.269531 L 226.632813 62.464844 L 228.503906 70.5625 L 246.09375 66.503906 L 247.78125 73.824219 L 221.371094 79.921875 L 212.832031 42.910156 L 239.242188 36.816406 Z M 276.992188 41.253906 L 269.632813 44.339844 C 268.382813 41.429688 266.113281 40.097656 262.820313 40.347656 C 259.296875 40.617188 257.625 41.886719 257.796875 44.160156 C 257.867188 45.066406 258.257813 45.808594 258.957031 46.382813 C 259.667969 46.960938 261.1875 47.394531 263.542969 47.699219 C 267.460938 48.199219 270.351563 48.78125 272.210938 49.4375 C 274.070313 50.089844 275.679688 51.253906 277.054688 52.921875 C 278.417969 54.589844 279.183594 56.511719 279.351563 58.6875 C 279.609375 62.105469 278.519531 65.15625 276.070313 67.847656 C 273.621094 70.539063 269.804688 72.089844 264.628906 72.480469 C 260.738281 72.773438 257.371094 72.144531 254.5 70.589844 C 251.640625 69.023438 249.640625 66.539063 248.507813 63.121094 L 256.597656 60.640625 C 257.792969 64.089844 260.492188 65.65625 264.703125 65.339844 C 266.738281 65.179688 268.222656 64.675781 269.15625 63.816406 C 270.089844 62.953125 270.519531 61.976563 270.4375 60.890625 C 270.351563 59.773438 269.832031 58.960938 268.878906 58.410156 C 267.933594 57.878906 266.140625 57.4375 263.515625 57.097656 C 258.613281 56.46875 255.074219 55.378906 252.890625 53.804688 C 250.703125 52.238281 249.488281 49.789063 249.234375 46.460938 C 248.980469 43.097656 249.984375 40.164063 252.257813 37.671875 C 254.535156 35.175781 257.777344 33.765625 261.96875 33.445313 C 269.40625 32.878906 274.414063 35.476563 276.992188 41.253906 Z M 305.53125 33.238281 L 316.058594 71.597656 L 306.503906 71.273438 L 304.425781 63.339844 L 292.191406 62.925781 L 289.527344 70.699219 L 281.738281 70.4375 L 295.171875 32.886719 Z M 294.554688 56.003906 L 302.578125 56.269531 L 299.054688 42.839844 Z M 370.097656 59.921875 L 360.941406 57.984375 C 362.261719 52.757813 360.980469 49.601563 357.085938 48.519531 C 352.613281 47.273438 349.277344 50.628906 347.058594 58.59375 C 345.78125 63.195313 345.515625 66.480469 346.277344 68.453125 C 347.035156 70.429688 348.5 71.722656 350.675781 72.328125 C 354.214844 73.3125 357.011719 71.609375 359.082031 67.21875 L 367.277344 70.054688 C 365.523438 74.265625 362.972656 77.140625 359.625 78.652344 C 356.265625 80.171875 352.613281 80.378906 348.671875 79.277344 C 343.835938 77.933594 340.371094 75.164063 338.273438 70.984375 C 336.175781 66.804688 335.949219 61.769531 337.59375 55.871094 C 339.125 50.355469 341.847656 46.246094 345.753906 43.546875 C 349.660156 40.839844 354.152344 40.195313 359.21875 41.605469 C 367.996094 44.046875 371.625 50.152344 370.097656 59.921875 Z M 391 52.824219 L 376.777344 88.039063 L 368.539063 84.714844 L 382.761719 49.496094 Z M 426.160156 69.425781 L 398.878906 98.222656 L 390.328125 93.925781 L 397.207031 54.878906 L 405.664063 59.128906 L 400.25 86.804688 L 419.542969 66.101563 Z M 439.957031 78.644531 L 419.242188 110.480469 L 411.796875 105.636719 L 432.511719 73.796875 Z M 437.320313 114.335938 L 449.171875 123.671875 L 444.519531 129.578125 L 425.601563 114.664063 L 449.117188 84.839844 L 456.183594 90.40625 Z M 437.320313 114.335938 "/>
<path style=" stroke:none;fill-rule:evenodd;fill:rgb(100%,100%,100%);fill-opacity:1;" d="M 212.648438 530.792969 L 229.363281 536.503906 C 232.355469 537.523438 234.484375 538.660156 235.742188 539.910156 C 236.988281 541.167969 237.875 542.644531 238.386719 544.355469 C 238.898438 546.054688 238.824219 547.894531 238.152344 549.859375 C 236.785156 553.859375 233.722656 555.78125 228.953125 555.644531 C 231.261719 557.054688 232.757813 558.808594 233.4375 560.90625 C 234.117188 562.996094 234.117188 565.019531 233.445313 566.988281 C 232.527344 569.671875 230.722656 571.644531 228.015625 572.90625 C 225.320313 574.164063 221.679688 574.011719 217.101563 572.453125 L 200.375 566.738281 Z M 218.886719 540.023438 L 216.199219 547.890625 L 222.539063 550.054688 C 224.867188 550.851563 226.484375 550.890625 227.402344 550.171875 C 228.316406 549.464844 228.925781 548.6875 229.210938 547.839844 C 229.523438 546.925781 229.539063 546.058594 229.269531 545.234375 C 228.996094 544.398438 228.597656 543.800781 228.050781 543.433594 C 227.515625 543.058594 226.375 542.585938 224.625 541.984375 Z M 213.988281 554.359375 L 211.0625 562.925781 L 217.496094 565.121094 C 219.695313 565.878906 221.382813 566.019531 222.550781 565.5625 C 223.71875 565.109375 224.53125 564.195313 224.996094 562.832031 C 225.390625 561.679688 225.285156 560.542969 224.699219 559.410156 C 224.113281 558.277344 222.808594 557.367188 220.789063 556.679688 Z M 247.265625 564.132813 L 244.703125 578.890625 L 235.894531 577.359375 L 242.390625 539.9375 L 258.839844 542.792969 C 261.867188 543.320313 264.246094 544.097656 265.957031 545.117188 C 267.675781 546.148438 268.976563 547.707031 269.855469 549.800781 C 270.734375 551.898438 270.96875 554.109375 270.566406 556.417969 C 269.785156 560.925781 267.050781 563.785156 262.371094 564.992188 L 266.414063 582.660156 L 256.753906 580.984375 L 253.558594 565.226563 Z M 250.03125 548.203125 L 248.375 557.738281 L 253.761719 558.671875 C 255.519531 558.976563 256.820313 559.082031 257.660156 558.964844 C 258.503906 558.859375 259.300781 558.429688 260.074219 557.703125 C 260.847656 556.960938 261.328125 556.039063 261.519531 554.933594 C 261.699219 553.894531 261.550781 552.90625 261.070313 551.976563 C 260.582031 551.054688 260 550.421875 259.300781 550.109375 C 258.597656 549.785156 257.238281 549.457031 255.230469 549.101563 Z M 292.441406 544.878906 L 303.46875 583.097656 L 293.910156 582.902344 L 291.730469 574.996094 L 279.488281 574.742188 L 276.925781 582.546875 L 269.136719 582.386719 L 282.078125 544.664063 Z M 281.761719 567.78125 L 289.789063 567.953125 L 286.089844 554.5625 Z M 329.730469 549.546875 L 322.550781 553.039063 C 321.144531 550.203125 318.800781 548.996094 315.527344 549.425781 C 312.027344 549.886719 310.425781 551.246094 310.722656 553.503906 C 310.839844 554.410156 311.269531 555.128906 312.003906 555.664063 C 312.742188 556.203125 314.28125 556.550781 316.652344 556.726563 C 320.59375 557.011719 323.511719 557.429688 325.40625 557.984375 C 327.292969 558.53125 328.96875 559.601563 330.433594 561.203125 C 331.886719 562.789063 332.753906 564.664063 333.039063 566.832031 C 333.488281 570.226563 332.566406 573.339844 330.269531 576.15625 C 327.96875 578.976563 324.246094 580.730469 319.097656 581.40625 C 315.230469 581.917969 311.832031 581.476563 308.882813 580.078125 C 305.941406 578.671875 303.808594 576.300781 302.488281 572.957031 L 310.429688 570.027344 C 311.8125 573.40625 314.59375 574.828125 318.78125 574.269531 C 320.804688 574.003906 322.257813 573.417969 323.144531 572.507813 C 324.027344 571.597656 324.40625 570.601563 324.261719 569.519531 C 324.117188 568.40625 323.554688 567.621094 322.570313 567.128906 C 321.597656 566.644531 319.78125 566.308594 317.140625 566.109375 C 312.210938 565.753906 308.617188 564.859375 306.351563 563.40625 C 304.082031 561.964844 302.734375 559.589844 302.300781 556.273438 C 301.859375 552.929688 302.699219 549.953125 304.835938 547.335938 C 306.96875 544.714844 310.132813 543.128906 314.300781 542.585938 C 321.695313 541.605469 326.835938 543.925781 329.730469 549.546875 Z M 340.34375 538.304688 L 348.886719 575.316406 L 340.230469 577.3125 L 331.6875 540.304688 Z M 362.46875 563.511719 L 376.804688 558.800781 L 379.152344 565.941406 L 356.265625 573.464844 L 344.410156 537.378906 L 352.957031 534.566406 Z M 362.46875 563.511719 "/>
<g clip-path="url(#clip2)" clip-rule="nonzero">
<path style="fill:none;stroke-width:113.386;stroke-linecap:round;stroke-linejoin:miter;stroke:rgb(89.451599%,45.872498%,14.501953%);stroke-opacity:1;stroke-miterlimit:4;" d="M 748.710938 1244.640625 C 318.28125 1740.03125 57.539063 2386.789063 57.539063 3094.5625 C 57.539063 3788.039063 307.851563 4422.921875 722.8125 4914.210938 M 5032.929688 4916.007813 L 5034.492188 4916.007813 C 5450.351563 4424.445313 5701.25 3788.859375 5701.25 3094.5625 C 5701.25 2377.023438 5433.28125 1722.140625 4992.148438 1224.210938 L 4990.234375 1224.210938 " transform="matrix(0.1,0,0,-0.1,0,618.8)"/>
</g>
</g>
</svg>
